<?xml version="1.0" encoding="utf-8"?>
<!-- Generator: Adobe Illustrator 19.0.0, SVG Export Plug-In . SVG Version: 6.00 Build 0)  -->
<svg version="1.1" id="Layer_1" xmlns="http://www.w3.org/2000/svg" xmlns:xlink="http://www.w3.org/1999/xlink" x="0px" y="0px"
	 viewBox="-170 272 270 250" style="enable-background:new -170 272 270 250;" xml:space="preserve">
<style type="text/css">
	.st0{fill:#A4C639;}
	.st1{fill:#FFFFFF;}
</style>
<circle id="XMLID_27_" class="st0" cx="-41.5" cy="395.4" r="116.5"/>
<g id="XMLID_34_">
	<path id="XMLID_225_" class="st1" d="M-106,351.4c0.7-2.8,1.8-5.3,4.2-7c3.2-2.3,6.7-2.7,10.3-1.2s5.7,4.3,6.2,8.2
		c0.7,5.2-2.4,9.4-6.3,11c-4.4,1.9-9.4,0.6-12.3-3.5c-1-1.4-1.4-3.3-2.1-5C-106,353.1-106,352.3-106,351.4z"/>
	<path id="XMLID_224_" class="st1" d="M-106,382.6c0.6-2.8,1.8-5.3,4.2-7c3.2-2.3,6.7-2.8,10.3-1.2c3.6,1.5,5.7,4.3,6.3,8.2
		c0.8,6.1-3.5,10.9-8.5,11.6c-5.9,0.9-10.8-2.6-12.1-8.5c0-0.2-0.1-0.3-0.2-0.5C-106,384.3-106,383.5-106,382.6z"/>
	<path id="XMLID_223_" class="st1" d="M-106,413.9c0.6-2.7,1.7-5.2,4-6.9c3.2-2.4,6.8-3,10.5-1.4c3.6,1.5,5.8,4.3,6.3,8.3
		c0.7,5.8-3.4,10.6-8.4,11.5c-5.9,1-11-2.6-12.2-8.4c0-0.2-0.1-0.4-0.2-0.6C-106,415.6-106,414.7-106,413.9z"/>
	<path id="XMLID_222_" class="st1" d="M-106,445.1c0.6-2.8,1.8-5.3,4.2-7.1c3.2-2.3,6.7-2.8,10.3-1.3c3.5,1.5,5.7,4.2,6.3,8.1
		c0.9,6.2-3.4,11-8.4,11.8c-6.2,1.1-11.3-3.2-12.2-8.6c0-0.1-0.1-0.2-0.2-0.3C-106,446.8-106,445.9-106,445.1z"/>
	<path id="XMLID_221_" class="st1" d="M-24.7,421.4c-14.1,0-28.2,0-42.3,0c-3.5,0-5.9-1.5-6.8-4.3c-1.3-3.8,1.2-7.7,5.2-8.2
		c0.6-0.1,1.2-0.1,1.8-0.1c28.2,0,56.4,0,84.6,0c3.9,0,6.4,1.8,7.1,5.1c0.8,3.4-1.7,6.9-5.1,7.4c-0.8,0.1-1.5,0.1-2.3,0.1
		C3.4,421.4-10.6,421.4-24.7,421.4z"/>
	<path id="XMLID_220_" class="st1" d="M-24.5,377.7c14.1,0,28.2,0,42.3,0c2.3,0,4.3,0.5,5.8,2.4c1.4,1.9,1.8,3.9,1,6.1
		c-0.9,2.2-2.5,3.5-4.8,3.9c-0.6,0.1-1.3,0.2-1.9,0.2c-28.3,0-56.5,0-84.8,0c-3.4,0-5.7-1.4-6.7-3.9c-1.6-3.9,1-8.2,5.3-8.6
		c0.6-0.1,1.3-0.1,1.9-0.1C-52.5,377.7-38.5,377.7-24.5,377.7z"/>
	<path id="XMLID_219_" class="st1" d="M-24.7,452.6c-14.1,0-28.2,0-42.3,0c-2.8,0-5-0.8-6.4-3.4c-2-3.8,0.3-8.4,4.5-9.1
		c0.6-0.1,1.3-0.1,1.9-0.1c28.3,0,56.5,0,84.8,0c3.8,0,6.3,1.8,7,5.1c0.8,3.5-1.8,7.1-5.4,7.4c-0.7,0.1-1.4,0.1-2,0.1
		C3.4,452.6-10.6,452.6-24.7,452.6z"/>
	<path id="XMLID_218_" class="st1" d="M-24.5,346.5c14.2,0,28.3,0,42.5,0c3.7,0,6.1,1.8,6.8,4.9c0.8,3.4-1.4,6.8-4.7,7.5
		c-0.7,0.2-1.5,0.2-2.3,0.2c-28.3,0-56.5,0-84.8,0c-4.7,0-7.6-3.1-7-7.4c0.4-2.7,2.8-5,5.6-5.2c0.6,0,1.3-0.1,1.9-0.1
		C-52.6,346.5-38.5,346.5-24.5,346.5z"/>
</g>
</svg>
